<?xml version="1.0" encoding="utf-8"?>
<!-- Generator: Adobe Illustrator 16.0.0, SVG Export Plug-In . SVG Version: 6.00 Build 0)  -->
<!DOCTYPE svg PUBLIC "-//W3C//DTD SVG 1.1//EN" "http://www.w3.org/Graphics/SVG/1.1/DTD/svg11.dtd">
<svg version="1.1" id="Layer_1" xmlns="http://www.w3.org/2000/svg" xmlns:xlink="http://www.w3.org/1999/xlink" x="0px" y="0px"
	 width="377px" height="126px" viewBox="0 0 699 234" enable-background="new 0 0 699 234" xml:space="preserve">
<g>
	<path fill="#64656A" d="M16.9,7H0V3.6V0.3h41.3v3.3V7H24.3v67.3h-3.7h-3.7V7z"/>
	<path fill="#64656A" d="M48.4,19.5h3.5h3.5v7.9c0.6-1.3,1.3-2.5,2.1-3.4c2.9-3.7,7.4-5.6,13.6-5.9v7.4c-4.7,0.4-8.3,1.9-11.1,4.6
		c-3,3-4.5,7.4-4.5,13v31.2H52h-3.5V19.5z"/>
	<path fill="#64656A" d="M105,75.5c-8,0-14.9-2.8-20.4-8.3c-5.6-5.5-8.4-12.3-8.4-20.3c0-8,2.8-14.8,8.4-20.4
		C90.2,21,97,18.2,105,18.2c8.1,0,14.9,2.8,20.3,8.3l1.8,2.1v-9.2h7v54.7h-3.5h-3.5v-9.1c-0.6,0.7-1.2,1.4-1.8,2.1
		C119.9,72.7,113.2,75.5,105,75.5z M105.3,24.4c-6.2,0-11.4,2.2-15.7,6.5c-4.3,4.4-6.4,9.7-6.4,16c0,6.3,2.1,11.6,6.4,16
		c4.3,4.3,9.5,6.5,15.7,6.5c6.2,0,11.4-2.2,15.7-6.5c4.3-4.4,6.4-9.7,6.4-16c0-6.3-2.1-11.6-6.4-16
		C116.7,26.6,111.5,24.4,105.3,24.4z"/>
	<path fill="#64656A" d="M146.8,19.5h3.5h3.5v7.1l1.1-1.4c3.8-4.8,9.2-7.1,16-7.1c7.6,0,13.4,2.3,17.7,7c4.2,4.7,6.3,11.1,6.3,19.4
		v29.7h-3.5h-3.5V44.3c0-6.2-1.5-11.1-4.5-14.6c-3-3.5-7.2-5.3-12.5-5.3c-5.5,0-9.7,1.8-12.6,5.3s-4.4,8.7-4.4,15.3v29.2h-3.5h-3.5
		V19.5z"/>
	<path fill="#64656A" d="M228.8,33c0-2.5-0.7-4.6-2.3-6.2c-1.5-1.6-3.5-2.4-6-2.4c-2.5,0-4.5,0.8-6,2.3c-1.5,1.5-2.2,3.6-2.2,6.3
		c0,2.1,0.7,3.8,2.2,5.1c1.5,1.3,4.1,2.6,7.8,3.8c5.4,1.8,9.4,4,11.8,6.8c2.4,2.7,3.6,6.3,3.6,10.7c0,4.6-1.6,8.4-4.9,11.5
		c-3.2,3.1-7.3,4.6-12.2,4.6c-5.2,0-9.3-1.6-12.4-4.7c-3.1-3.1-4.6-7.4-4.6-12.7h7c-0.1,3.5,0.8,6.3,2.5,8.3c1.8,2,4.2,3,7.4,3
		c3,0,5.5-0.8,7.2-2.5c1.8-1.7,2.7-4,2.7-6.8c0-2.9-0.9-5.2-2.6-6.9c-1.7-1.7-4.7-3.3-8.9-4.6c-4.9-1.6-8.5-3.6-10.6-5.9
		c-2.2-2.3-3.3-5.4-3.3-9c0-4.4,1.4-8,4.3-10.9s6.5-4.3,10.9-4.3c4.6,0,8.3,1.4,11.1,4.1c2.8,2.7,4.2,6.3,4.2,10.7H228.8z"/>
	<path fill="#64656A" d="M246.5,19.5h3.5h3.5v9.2l2-2.1c5.5-5.5,12.4-8.3,20.7-8.3c7.9,0,14.6,2.8,20.1,8.3
		c5.5,5.5,8.2,12.3,8.2,20.4c0,8-2.7,14.8-8.2,20.3c-5.5,5.5-12.2,8.3-20.1,8.3c-8.3,0-15.1-2.8-20.6-8.3l-2-2.2v28.6h-3.5h-3.5
		V19.5z M275.4,69.3c6.2,0,11.4-2.2,15.7-6.5c4.3-4.3,6.4-9.7,6.4-16c0-6.3-2.1-11.7-6.4-16c-4.3-4.4-9.5-6.5-15.7-6.5
		c-6.2,0-11.4,2.2-15.7,6.5c-4.3,4.3-6.4,9.7-6.4,16h0c0,6.3,2.1,11.7,6.4,16C264,67.1,269.2,69.3,275.4,69.3z"/>
	<path fill="#64656A" d="M341.4,75.5c-8,0-14.9-2.8-20.4-8.3c-5.6-5.5-8.4-12.3-8.4-20.3c0-8,2.8-14.8,8.4-20.4
		c5.6-5.5,12.4-8.3,20.4-8.3c8.1,0,14.9,2.8,20.3,8.3l1.8,2.1v-9.2h7v54.7H367h-3.5v-9.1c-0.6,0.7-1.2,1.4-1.8,2.1
		C356.3,72.7,349.5,75.5,341.4,75.5z M341.7,24.4c-6.2,0-11.4,2.2-15.7,6.5c-4.3,4.4-6.4,9.7-6.4,16c0,6.3,2.1,11.6,6.4,16
		c4.3,4.3,9.5,6.5,15.7,6.5c6.2,0,11.4-2.2,15.7-6.5c4.3-4.4,6.4-9.7,6.4-16c0-6.3-2.1-11.6-6.4-16
		C353.1,26.6,347.8,24.4,341.7,24.4z"/>
	<path fill="#64656A" d="M383.2,19.5h3.5h3.5v7.9c0.6-1.3,1.3-2.5,2.1-3.4c2.9-3.7,7.4-5.6,13.6-5.9v7.4c-4.7,0.4-8.3,1.9-11.1,4.6
		c-3,3-4.5,7.4-4.5,13v31.2h-3.5h-3.5V19.5z"/>
	<path fill="#64656A" d="M439,75.5c-7.9,0-14.7-2.8-20.2-8.3c-5.5-5.5-8.3-12.3-8.3-20.3c0-8,2.8-14.8,8.3-20.4
		c5.5-5.5,12.2-8.3,20.2-8.3c8,0,14.8,2.8,20.3,8.3c5.5,5.5,8.3,12.3,8.3,20.4c0,0.9,0,1.8-0.1,2.6h-49.7c0.5,5.1,2.5,9.5,6.2,13.3
		c4.2,4.3,9.3,6.5,15.4,6.5c4.3,0,8.1-1.1,11.4-3.3c3.3-2.2,5.9-5.4,7.9-9.6h7.3c-2,5.7-5.4,10.3-10.3,13.8
		C450.6,73.8,445.1,75.5,439,75.5z M460.3,43.2c-0.7-4.8-2.7-8.9-6-12.3c-4.1-4.3-9.2-6.5-15.2-6.5c-6,0-11.1,2.2-15.2,6.5
		c-3.2,3.4-5.2,7.5-6,12.3H460.3z"/>
	<path fill="#64656A" d="M478.2,19.5h3.5h3.5v7.1l1.1-1.4c3.8-4.8,9.2-7.1,16-7.1c7.6,0,13.4,2.3,17.7,7c4.2,4.7,6.3,11.1,6.3,19.4
		v29.7h-3.5h-3.5V44.3c0-6.2-1.5-11.1-4.5-14.6c-3-3.5-7.2-5.3-12.5-5.3c-5.5,0-9.7,1.8-12.6,5.3s-4.4,8.7-4.4,15.3v29.2h-3.5h-3.5
		V19.5z"/>
	<path fill="#64656A" d="M545.8,74.2V25.8h-11.6v-6.3h11.6V0.4h7v19.1h12.9v6.3h-12.9v48.4H545.8z"/>
	<path fill="#64656A" d="M573.8,74.2v-74h6.8h6.8v61.2h22.7v6.3v6.4H573.8z"/>
	<path fill="#64656A" d="M642.2,0.3h5.3h5.3l31,74h-7.5h-7.5l-7.4-19.1h-27.9l-7.2,19.1h-7.5h-7.6L642.2,0.3z M638.4,42.4h18.2
		l-9.1-23.6h0L638.4,42.4z"/>
</g>
<g>
	<rect x="613.7" y="136.5" fill="none" width="2.7" height="26"/>
	<rect x="619.7" y="136.5" fill="none" width="2.7" height="26"/>
	<rect x="607.8" y="136.5" fill="none" width="2.7" height="26"/>
	<path fill="none" d="M630.1,162.5h36.4v-34.7c-0.4-0.4-0.8-0.9-1.3-1.3h-35.1V162.5z"/>
	<rect x="601.8" y="136.5" fill="none" width="2.7" height="26"/>
	<path fill="none" d="M666.5,190.2v-24.9h-20v40.8C655.3,203.4,664.3,199.7,666.5,190.2z"/>
	<rect x="591" y="136.5" fill="none" width="1.6" height="26"/>
	<path fill="none" d="M613.7,209.8c-5.3-1.5-10.8-3.1-15.5-5.9c-5.5-3.3-8.8-7.6-10-13.2l0-0.1v-59.5c-7.3,9-11.7,20.5-11.7,32.9
		c0,28.5,23,51.8,51.5,52.2l-0.2-0.2C625,213.1,619.5,211.5,613.7,209.8z"/>
	<rect x="595.8" y="136.5" fill="none" width="2.7" height="26"/>
	<rect x="625.7" y="136.5" fill="none" width="1.6" height="26"/>
	<path fill="none" d="M669.2,130.9v59.5l0,0.1c-1.2,5.6-4.5,10-10,13.2c-4.7,2.8-10.2,4.4-15.5,5.9c-5.8,1.7-11.3,3.3-14,6.1
		l-0.2,0.2c28.5-0.4,51.5-23.7,51.5-52.2C681,151.4,676.6,139.9,669.2,130.9z"/>
	<path fill="none" d="M614.5,207.1c4.9,1.4,9.5,2.8,12.9,4.9v-46.8H591v24.9C593.4,201,604.6,204.2,614.5,207.1z"/>
	<path fill="none" d="M628.7,111.6c-12.7,0-24.3,4.5-33.4,12.1h66.8C653,116.2,641.4,111.6,628.7,111.6z"/>
	<path fill="#64656A" d="M679.4,185.3c2.9-6.8,4.3-14,4.3-21.4c0-7.4-1.5-14.6-4.3-21.4c-2.5-5.8-5.9-11.1-10.2-15.8v-2.9h-2.9
		c-4.8-4.5-10.2-8-16.2-10.5c-6.8-2.9-14-4.3-21.4-4.3c-7.4,0-14.6,1.5-21.4,4.3c-6,2.5-11.4,6.1-16.2,10.5h-2.9v2.9
		c-4.3,4.7-7.7,10-10.2,15.8c-2.9,6.8-4.3,14-4.3,21.4c0,7.4,1.5,14.6,4.3,21.4c2.8,6.6,6.7,12.4,11.8,17.5
		c5.1,5.1,10.9,9,17.5,11.8c6.8,2.9,14,4.3,21.4,4.3c7.4,0,14.6-1.5,21.4-4.3c6.6-2.8,12.4-6.7,17.5-11.8
		C672.7,197.7,676.6,191.8,679.4,185.3z M591,165.3h36.4V212c-3.3-2.2-8-3.5-12.9-4.9c-9.9-2.9-21-6.1-23.5-16.9V165.3z
		 M595.8,136.5h2.7v26h-2.7V136.5z M666.5,127.8v34.7h-36.4v-36h35.1C665.6,126.9,666,127.3,666.5,127.8z M601.8,136.5h2.7v26h-2.7
		V136.5z M607.8,136.5h2.7v26h-2.7V136.5z M613.7,136.5h2.7v26h-2.7V136.5z M619.7,136.5h2.7v26h-2.7V136.5z M625.7,136.5h1.6v26
		h-1.6V136.5z M646.5,165.3h20v24.9c-2.2,9.6-11.1,13.2-20,15.9V165.3z M628.7,111.6c12.7,0,24.3,4.5,33.4,12.1h-66.8
		C604.4,116.2,616,111.6,628.7,111.6z M591,136.5h1.6v26H591V136.5z M576.5,163.9c0-12.5,4.4-23.9,11.7-32.9v59.5l0,0.1
		c1.2,5.6,4.5,10,10,13.2c4.7,2.8,10.2,4.4,15.5,5.9c5.8,1.7,11.3,3.3,14,6.1l0.2,0.2C599.5,215.7,576.5,192.4,576.5,163.9z
		 M629.5,216.1l0.2-0.2c2.7-2.8,8.2-4.4,14-6.1c5.3-1.5,10.8-3.1,15.5-5.9c5.5-3.3,8.8-7.6,10-13.2l0-0.1v-59.5
		c7.3,9,11.7,20.5,11.7,32.9C681,192.4,657.9,215.7,629.5,216.1z"/>
	<path fill="#64656A" d="M647.9,99.1c0.1,0,0.3,0.1,0.4,0.1c0.6,0,1.2-0.4,1.4-1c0.2-0.8-0.2-1.6-1-1.8c-0.8-0.2-1.6,0.2-1.8,1
		C646.6,98.1,647.1,98.9,647.9,99.1z"/>
	<path fill="#64656A" d="M603.1,226.3c-0.7-0.3-1.6,0-1.9,0.8c-0.3,0.7,0.1,1.6,0.8,1.9h0c0.2,0.1,0.4,0.1,0.6,0.1
		c0.6,0,1.1-0.3,1.4-0.9C604.2,227.5,603.8,226.6,603.1,226.3z"/>
	<path fill="#64656A" d="M607.3,227.9c-0.8-0.3-1.6,0.2-1.8,0.9c-0.3,0.8,0.2,1.6,0.9,1.9c0.2,0.1,0.3,0.1,0.5,0.1
		c0.6,0,1.2-0.4,1.4-1C608.5,229,608.1,228.2,607.3,227.9z"/>
	<path fill="#64656A" d="M587.3,217.2c-0.6-0.5-1.6-0.4-2,0.3c-0.5,0.6-0.4,1.6,0.3,2c0.3,0.2,0.6,0.3,0.9,0.3
		c0.4,0,0.9-0.2,1.2-0.6C588.1,218.6,588,217.7,587.3,217.2z"/>
	<path fill="#64656A" d="M594.9,222.3c-0.7-0.4-1.6-0.2-2,0.5c-0.4,0.7-0.2,1.6,0.5,2c0.2,0.1,0.5,0.2,0.7,0.2c0.5,0,1-0.3,1.3-0.7
		C595.8,223.6,595.6,222.7,594.9,222.3z"/>
	<path fill="#64656A" d="M591,219.9c-0.7-0.5-1.6-0.3-2,0.4c-0.5,0.7-0.3,1.6,0.4,2h0c0.3,0.2,0.5,0.3,0.8,0.3
		c0.5,0,0.9-0.2,1.2-0.6C591.9,221.2,591.7,220.3,591,219.9z"/>
	<path fill="#64656A" d="M598.9,224.4c-0.7-0.4-1.6-0.1-2,0.7c-0.4,0.7-0.1,1.6,0.7,2c0.2,0.1,0.4,0.2,0.6,0.2
		c0.5,0,1.1-0.3,1.3-0.8C599.9,225.7,599.6,224.8,598.9,224.4z"/>
	<path fill="#64656A" d="M611.7,229.2c-0.8-0.2-1.6,0.3-1.8,1c-0.2,0.8,0.3,1.6,1,1.8c0.1,0,0.2,0,0.4,0c0.7,0,1.2-0.4,1.4-1.1
		C612.9,230.2,612.5,229.4,611.7,229.2z"/>
	<path fill="#64656A" d="M625.2,231.3c-0.8,0-1.5,0.6-1.5,1.4c0,0.8,0.6,1.5,1.4,1.5c0,0,0.1,0,0.1,0c0.8,0,1.4-0.6,1.5-1.4
		C626.6,232,626,231.3,625.2,231.3z"/>
	<path fill="#64656A" d="M629.7,231.4c-0.8,0-1.5,0.7-1.4,1.5c0,0.8,0.7,1.4,1.5,1.4c0,0,0,0,0,0c0.8,0,1.5-0.7,1.4-1.5
		C631.2,232,630.6,231.3,629.7,231.4z"/>
	<path fill="#64656A" d="M620.6,230.9C620.6,230.9,620.6,230.9,620.6,230.9c-0.8-0.1-1.5,0.5-1.6,1.3c-0.1,0.8,0.5,1.5,1.3,1.6
		c0.1,0,0.1,0,0.2,0c0.7,0,1.4-0.5,1.4-1.3C622,231.7,621.4,231,620.6,230.9z"/>
	<path fill="#64656A" d="M616.1,230.2c-0.8-0.1-1.6,0.4-1.7,1.2c-0.2,0.8,0.4,1.6,1.2,1.7c0.1,0,0.2,0,0.3,0c0.7,0,1.3-0.5,1.4-1.2
		C617.5,231.1,616.9,230.3,616.1,230.2z"/>
	<path fill="#64656A" d="M574.6,204.2c-0.5-0.6-1.4-0.8-2-0.3c-0.6,0.5-0.8,1.4-0.3,2c0.3,0.4,0.7,0.6,1.2,0.6
		c0.3,0,0.6-0.1,0.9-0.3C575,205.8,575.1,204.9,574.6,204.2z"/>
	<path fill="#64656A" d="M564.3,184c-0.2-0.8-1.1-1.2-1.8-1c-0.8,0.2-1.2,1.1-1,1.8h0c0.2,0.6,0.8,1,1.4,1c0.1,0,0.3,0,0.4-0.1
		C564.1,185.6,564.5,184.8,564.3,184z"/>
	<path fill="#64656A" d="M560.3,172.2c0.8-0.1,1.4-0.8,1.3-1.6c-0.1-0.8-0.8-1.4-1.6-1.3c-0.8,0.1-1.4,0.8-1.3,1.6
		c0.1,0.8,0.7,1.3,1.5,1.3C560.2,172.2,560.2,172.2,560.3,172.2z"/>
	<path fill="#64656A" d="M561,176.8c0.8-0.1,1.3-0.9,1.2-1.7c-0.1-0.8-0.9-1.3-1.7-1.2s-1.3,0.9-1.2,1.7c0.1,0.7,0.7,1.2,1.4,1.2
		C560.8,176.8,560.9,176.8,561,176.8z"/>
	<path fill="#64656A" d="M567.6,192.5c-0.3-0.7-1.2-1-1.9-0.7c-0.7,0.3-1,1.2-0.7,1.9c0.2,0.5,0.8,0.8,1.3,0.8c0.2,0,0.4,0,0.6-0.1
		C567.6,194.1,567.9,193.2,567.6,192.5z"/>
	<path fill="#64656A" d="M562,181.4c0.8-0.2,1.3-1,1.1-1.8c-0.2-0.8-1-1.3-1.8-1.1c-0.8,0.2-1.3,1-1.1,1.8c0.2,0.7,0.8,1.1,1.4,1.1
		C561.8,181.4,561.9,181.4,562,181.4z"/>
	<path fill="#64656A" d="M578.5,211.1c-0.6,0.6-0.6,1.5,0,2.1c0.3,0.3,0.7,0.4,1,0.4c0.4,0,0.7-0.1,1-0.4c0.6-0.6,0.6-1.5,0-2.1
		C580,210.6,579,210.6,578.5,211.1z"/>
	<path fill="#64656A" d="M569.7,196.6c-0.4-0.7-1.3-1-2-0.6c-0.7,0.4-1,1.3-0.6,2c0.3,0.5,0.8,0.8,1.3,0.8c0.2,0,0.5-0.1,0.7-0.2
		C569.8,198.2,570,197.3,569.7,196.6z"/>
	<path fill="#64656A" d="M575.4,207.6c-0.6,0.5-0.7,1.4-0.2,2.1c0.3,0.3,0.7,0.5,1.1,0.5c0.3,0,0.7-0.1,1-0.4
		c0.6-0.5,0.7-1.4,0.2-2.1C576.9,207.2,576,207.1,575.4,207.6z"/>
	<path fill="#64656A" d="M583.8,214.3c-0.6-0.5-1.5-0.5-2.1,0.1c-0.5,0.6-0.5,1.5,0.1,2.1h0c0.3,0.2,0.6,0.4,1,0.4
		c0.4,0,0.8-0.2,1.1-0.5C584.5,215.7,584.4,214.8,583.8,214.3z"/>
	<path fill="#64656A" d="M634.3,231.1c-0.8,0.1-1.4,0.8-1.3,1.6c0.1,0.8,0.7,1.3,1.5,1.3c0,0,0.1,0,0.1,0c0.8-0.1,1.4-0.8,1.3-1.6
		C635.8,231.7,635.1,231.1,634.3,231.1z"/>
	<path fill="#64656A" d="M572,200.5c-0.4-0.7-1.3-0.9-2-0.4c-0.7,0.4-0.9,1.3-0.4,2c0.3,0.4,0.8,0.7,1.2,0.7c0.3,0,0.5-0.1,0.8-0.2
		C572.3,202.1,572.4,201.2,572,200.5z"/>
	<path fill="#64656A" d="M565.8,188.3c-0.3-0.8-1.1-1.1-1.9-0.8c-0.8,0.3-1.1,1.1-0.8,1.9c0.2,0.6,0.8,0.9,1.4,0.9
		c0.2,0,0.4,0,0.5-0.1C565.7,189.9,566.1,189.1,565.8,188.3z"/>
	<path fill="#64656A" d="M692.6,189.9c-0.7-0.3-1.6,0-1.9,0.8c-0.3,0.7,0,1.6,0.8,1.9c0.2,0.1,0.4,0.1,0.6,0.1
		c0.6,0,1.1-0.3,1.3-0.9C693.7,191,693.4,190.2,692.6,189.9z"/>
	<path fill="#64656A" d="M690.7,194.1c-0.7-0.4-1.6-0.1-2,0.6c-0.4,0.7-0.1,1.6,0.6,2c0.2,0.1,0.4,0.2,0.7,0.2c0.5,0,1-0.3,1.3-0.8
		C691.7,195.4,691.4,194.5,690.7,194.1z"/>
	<path fill="#64656A" d="M686.1,202.2c-0.7-0.5-1.6-0.3-2,0.4c-0.5,0.7-0.3,1.6,0.4,2c0.3,0.2,0.5,0.3,0.8,0.3
		c0.5,0,0.9-0.2,1.2-0.6l0,0C686.9,203.5,686.7,202.6,686.1,202.2z"/>
	<path fill="#64656A" d="M694.2,185.5c-0.8-0.3-1.6,0.1-1.9,0.9c0,0,0,0,0,0c-0.3,0.8,0.1,1.6,0.9,1.9c0.2,0.1,0.3,0.1,0.5,0.1
		c0.6,0,1.2-0.4,1.4-1C695.4,186.6,695,185.8,694.2,185.5z"/>
	<path fill="#64656A" d="M688.5,198.2c-0.7-0.4-1.6-0.2-2,0.5c-0.4,0.7-0.2,1.6,0.5,2c0.2,0.1,0.5,0.2,0.8,0.2c0.5,0,1-0.3,1.3-0.7
		C689.4,199.5,689.2,198.6,688.5,198.2z"/>
	<path fill="#64656A" d="M695.5,181c-0.8-0.2-1.6,0.2-1.8,1c-0.2,0.8,0.2,1.6,1,1.8c0.1,0,0.3,0.1,0.4,0.1c0.6,0,1.2-0.4,1.4-1.1
		C696.8,182,696.3,181.2,695.5,181z"/>
	<path fill="#64656A" d="M697.6,167.2c-0.8-0.1-1.5,0.6-1.6,1.4c-0.1,0.8,0.6,1.5,1.4,1.6c0,0,0.1,0,0.1,0c0.8,0,1.4-0.6,1.5-1.4
		C699,168,698.4,167.3,697.6,167.2z"/>
	<path fill="#64656A" d="M699.1,163.9c0-0.8-0.7-1.5-1.5-1.5c-0.8,0-1.5,0.7-1.5,1.5c0,0,0,0.1,0,0.1c0,0,0,0,0,0.1
		c0,0.8,0.6,1.5,1.5,1.5h0c0.8,0,1.5-0.7,1.5-1.5C699.1,164,699.1,164,699.1,163.9C699.1,163.9,699.1,163.9,699.1,163.9z"/>
	<path fill="#64656A" d="M696.5,176.5c-0.8-0.2-1.6,0.3-1.7,1.1c-0.2,0.8,0.3,1.6,1.1,1.7c0.1,0,0.2,0,0.3,0c0.7,0,1.3-0.5,1.4-1.2
		C697.8,177.4,697.3,176.6,696.5,176.5z"/>
	<path fill="#64656A" d="M683.4,205.9c-0.6-0.5-1.5-0.4-2.1,0.2c-0.5,0.6-0.4,1.5,0.2,2.1c0.3,0.2,0.6,0.3,0.9,0.3
		c0.4,0,0.9-0.2,1.1-0.5C684.1,207.4,684,206.5,683.4,205.9z"/>
	<path fill="#64656A" d="M697.2,171.9c-0.8-0.1-1.5,0.5-1.6,1.3s0.4,1.5,1.2,1.6c0.1,0,0.1,0,0.2,0c0.7,0,1.3-0.5,1.4-1.3
		C698.6,172.7,698,172,697.2,171.9z"/>
	<path fill="#64656A" d="M656.3,225.5c-0.7,0.3-1.1,1.2-0.7,1.9c0.2,0.5,0.8,0.9,1.3,0.9c0.2,0,0.4,0,0.6-0.1
		c0.7-0.3,1.1-1.2,0.7-1.9S657,225.2,656.3,225.5z"/>
	<path fill="#64656A" d="M652,227.2c-0.8,0.3-1.1,1.1-0.9,1.9c0.2,0.6,0.8,1,1.4,1c0.2,0,0.3,0,0.5-0.1c0.8-0.3,1.1-1.1,0.9-1.9
		C653.6,227.3,652.8,226.9,652,227.2z"/>
	<path fill="#64656A" d="M638.8,230.6c-0.8,0.1-1.3,0.9-1.2,1.7c0.1,0.7,0.7,1.2,1.4,1.2c0.1,0,0.1,0,0.2,0c0.8-0.1,1.3-0.9,1.2-1.7
		C640.4,231,639.6,230.5,638.8,230.6z"/>
	<path fill="#64656A" d="M678.3,209.6c-0.5,0.6-0.5,1.5,0.1,2.1c0.3,0.3,0.6,0.4,1,0.4c0.4,0,0.8-0.2,1.1-0.5
		c0.5-0.6,0.5-1.5-0.1-2.1C679.8,209,678.9,209,678.3,209.6z"/>
	<path fill="#64656A" d="M643.3,229.8c-0.8,0.2-1.3,1-1.1,1.7c0.2,0.7,0.8,1.1,1.4,1.1c0.1,0,0.2,0,0.3,0c0.8-0.2,1.3-1,1.1-1.7
		C644.9,230.1,644.1,229.6,643.3,229.8z"/>
	<path fill="#64656A" d="M660.4,223.5c-0.7,0.4-1,1.3-0.6,2c0.3,0.5,0.8,0.8,1.3,0.8c0.2,0,0.5-0.1,0.7-0.2c0.7-0.4,1-1.3,0.6-2
		C662,223.4,661.1,223.1,660.4,223.5z"/>
	<path fill="#64656A" d="M647.7,228.6c-0.8,0.2-1.2,1-1,1.8c0.2,0.6,0.8,1.1,1.4,1.1c0.1,0,0.3,0,0.4-0.1c0.8-0.2,1.2-1,1-1.8
		C649.3,228.9,648.5,228.4,647.7,228.6z"/>
	<path fill="#64656A" d="M675.1,212.9c-0.6,0.6-0.6,1.5-0.1,2.1c0.3,0.3,0.7,0.5,1.1,0.5c0.4,0,0.7-0.1,1-0.4
		c0.6-0.6,0.6-1.5,0.1-2.1C676.6,212.3,675.7,212.3,675.1,212.9z"/>
	<path fill="#64656A" d="M671.7,215.9c-0.6,0.5-0.7,1.4-0.2,2.1c0.3,0.3,0.7,0.5,1.1,0.5c0.3,0,0.7-0.1,0.9-0.3
		c0.6-0.5,0.7-1.4,0.2-2.1C673.3,215.5,672.3,215.4,671.7,215.9z"/>
	<path fill="#64656A" d="M664.3,221.2c-0.7,0.4-0.9,1.3-0.5,2c0.3,0.4,0.8,0.7,1.2,0.7c0.3,0,0.5-0.1,0.8-0.2c0.7-0.4,0.9-1.3,0.5-2
		C665.9,221,665,220.8,664.3,221.2z"/>
	<path fill="#64656A" d="M668.1,218.7C668.1,218.7,668.1,218.7,668.1,218.7c-0.7,0.5-0.8,1.4-0.3,2c0.3,0.4,0.7,0.6,1.2,0.6
		c0.3,0,0.6-0.1,0.9-0.3c0.7-0.5,0.8-1.4,0.3-2C669.7,218.4,668.8,218.2,668.1,218.7z"/>
	<path fill="#64656A" d="M620.6,96.9c0.1,0,0.1,0,0.2,0c0.8-0.1,1.4-0.8,1.3-1.6c-0.1-0.8-0.8-1.4-1.6-1.3c-0.8,0.1-1.4,0.8-1.3,1.6
		C619.3,96.3,619.9,96.9,620.6,96.9z"/>
	<path fill="#64656A" d="M656.4,102.3c0.2,0.1,0.4,0.1,0.6,0.1c0.6,0,1.1-0.3,1.3-0.9c0.3-0.7,0-1.6-0.7-1.9c-0.7-0.3-1.6,0-1.9,0.7
		C655.3,101.1,655.7,102,656.4,102.3z"/>
	<path fill="#64656A" d="M660.5,104.3c0.2,0.1,0.5,0.2,0.7,0.2c0.5,0,1-0.3,1.3-0.8c0.4-0.7,0.1-1.6-0.6-2c-0.7-0.4-1.6-0.1-2,0.6
		C659.5,103.1,659.8,103.9,660.5,104.3z"/>
	<path fill="#64656A" d="M664.4,106.6c0.2,0.2,0.5,0.2,0.8,0.2c0.5,0,1-0.2,1.2-0.7c0.4-0.7,0.2-1.6-0.5-2c-0.7-0.4-1.6-0.2-2,0.5
		C663.5,105.3,663.7,106.2,664.4,106.6z"/>
	<path fill="#64656A" d="M668.2,109.1c0.3,0.2,0.6,0.3,0.9,0.3c0.5,0,0.9-0.2,1.2-0.6c0.5-0.7,0.3-1.6-0.3-2c-0.7-0.5-1.6-0.3-2,0.3
		C667.4,107.8,667.5,108.7,668.2,109.1z"/>
	<path fill="#64656A" d="M625.3,96.5C625.3,96.5,625.3,96.5,625.3,96.5c0.9,0,1.5-0.7,1.5-1.5c0-0.8-0.7-1.4-1.5-1.4
		c-0.8,0-1.4,0.7-1.4,1.5C623.8,95.9,624.5,96.5,625.3,96.5z"/>
	<path fill="#64656A" d="M643.5,98C643.4,98,643.4,98,643.5,98c0.1,0,0.2,0,0.3,0c0.7,0,1.3-0.5,1.4-1.1c0.2-0.8-0.3-1.6-1.1-1.7h0
		c-0.8-0.2-1.6,0.3-1.7,1.1C642.2,97,642.7,97.8,643.5,98z"/>
	<path fill="#64656A" d="M634.4,96.6c0,0,0.1,0,0.1,0c0.8,0,1.4-0.6,1.5-1.3c0.1-0.8-0.5-1.5-1.3-1.6c-0.8-0.1-1.5,0.5-1.6,1.3
		C633,95.9,633.6,96.6,634.4,96.6z"/>
	<path fill="#64656A" d="M652.2,100.6c0.2,0.1,0.3,0.1,0.5,0.1c0.6,0,1.2-0.4,1.4-1c0.3-0.8-0.1-1.6-0.9-1.9
		c-0.8-0.3-1.6,0.1-1.9,0.9C651,99.5,651.4,100.3,652.2,100.6z"/>
	<path fill="#64656A" d="M629.9,96.4C629.9,96.4,629.9,96.4,629.9,96.4c0.8,0,1.5-0.6,1.5-1.4c0-0.8-0.6-1.5-1.4-1.5
		c-0.8,0-1.5,0.6-1.5,1.4C628.4,95.7,629.1,96.4,629.9,96.4z"/>
	<path fill="#64656A" d="M676.2,115.4c0.4,0,0.8-0.2,1.1-0.5c0.6-0.6,0.5-1.5,0-2.1c-0.6-0.6-1.5-0.5-2.1,0.1
		c-0.6,0.6-0.5,1.5,0.1,2.1C675.5,115.2,675.9,115.4,676.2,115.4z"/>
	<path fill="#64656A" d="M559.5,167.6C559.5,167.6,559.5,167.6,559.5,167.6c0.9,0,1.5-0.7,1.5-1.5c0-0.8-0.7-1.4-1.5-1.4
		c-0.8,0-1.4,0.7-1.4,1.5C558.1,167,558.7,167.6,559.5,167.6z"/>
	<path fill="#64656A" d="M671.8,111.9c0.3,0.2,0.6,0.3,0.9,0.3c0.4,0,0.8-0.2,1.1-0.5c0.5-0.6,0.4-1.5-0.2-2.1
		c-0.6-0.5-1.5-0.4-2.1,0.2C671.1,110.5,671.2,111.4,671.8,111.9z"/>
	<path fill="#64656A" d="M692.4,141.5c0.2,0.6,0.8,1,1.4,1c0.2,0,0.3,0,0.5-0.1c0.8-0.3,1.2-1.1,0.9-1.9s-1.1-1.2-1.9-0.9
		C692.5,139.9,692.1,140.8,692.4,141.5z"/>
	<path fill="#64656A" d="M679.5,118.7c0.4,0,0.7-0.1,1-0.4c0.6-0.5,0.6-1.5,0.1-2.1c-0.5-0.6-1.5-0.6-2.1-0.1
		c-0.6,0.5-0.6,1.5-0.1,2.1C678.7,118.5,679.1,118.7,679.5,118.7z"/>
	<path fill="#64656A" d="M696.8,153.1c-0.8,0.1-1.4,0.8-1.3,1.6c0.1,0.7,0.7,1.3,1.4,1.3c0.1,0,0.1,0,0.2,0c0.8-0.1,1.4-0.8,1.3-1.6
		C698.4,153.6,697.6,153,696.8,153.1z"/>
	<path fill="#64656A" d="M690.7,137.3C690.8,137.3,690.8,137.3,690.7,137.3c0.2,0.6,0.8,0.9,1.3,0.9c0.2,0,0.4,0,0.6-0.1
		c0.7-0.3,1.1-1.2,0.8-1.9c-0.3-0.7-1.2-1.1-1.9-0.8C690.8,135.7,690.4,136.5,690.7,137.3z"/>
	<path fill="#64656A" d="M696,148.6c-0.8,0.2-1.3,0.9-1.1,1.7c0.1,0.7,0.7,1.2,1.4,1.2c0.1,0,0.2,0,0.3,0c0.8-0.2,1.3-0.9,1.1-1.7v0
		C697.5,148.9,696.8,148.4,696,148.6z"/>
	<path fill="#64656A" d="M694.8,144.1c-0.8,0.2-1.2,1-1,1.8l0,0c0.2,0.6,0.8,1.1,1.4,1.1c0.1,0,0.3,0,0.4-0.1c0.8-0.2,1.2-1,1-1.8
		C696.4,144.3,695.6,143.8,694.8,144.1z"/>
	<path fill="#64656A" d="M684.1,125.3c0.3,0.4,0.7,0.6,1.2,0.6c0.3,0,0.6-0.1,0.8-0.3c0.7-0.5,0.8-1.4,0.4-2c-0.5-0.7-1.4-0.8-2-0.4
		C683.8,123.7,683.6,124.7,684.1,125.3z"/>
	<path fill="#64656A" d="M682.5,122.2c0.3,0,0.6-0.1,0.9-0.3c0.6-0.5,0.7-1.4,0.2-2.1c-0.5-0.6-1.4-0.7-2.1-0.2
		c-0.6,0.5-0.7,1.4-0.2,2.1C681.7,122,682.1,122.2,682.5,122.2z"/>
	<path fill="#64656A" d="M688.8,133.1c0.3,0.5,0.8,0.8,1.3,0.8c0.2,0,0.5-0.1,0.7-0.2c0.7-0.4,1-1.2,0.6-2c-0.4-0.7-1.3-1-2-0.6
		C688.7,131.5,688.4,132.4,688.8,133.1z"/>
	<path fill="#64656A" d="M686.6,129.1c0.3,0.5,0.8,0.7,1.3,0.7c0.3,0,0.5-0.1,0.8-0.2c0.7-0.4,0.9-1.3,0.5-2c-0.4-0.7-1.3-0.9-2-0.5
		C686.4,127.6,686.2,128.5,686.6,129.1z"/>
	<path fill="#64656A" d="M639,97.2c0.1,0,0.1,0,0.2,0c0.7,0,1.3-0.5,1.4-1.2c0.1-0.8-0.4-1.5-1.2-1.7c-0.8-0.1-1.5,0.4-1.7,1.2
		C637.6,96.3,638.2,97,639,97.2z"/>
	<path fill="#64656A" d="M567.7,131.6c0.2,0.1,0.5,0.2,0.7,0.2c0.5,0,1-0.3,1.3-0.7c0.4-0.7,0.1-1.6-0.6-2c-0.7-0.4-1.6-0.1-2,0.6
		C566.8,130.4,567,131.2,567.7,131.6z"/>
	<path fill="#64656A" d="M563.9,140.1c0.2,0.1,0.4,0.1,0.5,0.1c0.6,0,1.1-0.4,1.4-0.9c0.3-0.8-0.1-1.6-0.8-1.9
		c-0.8-0.3-1.6,0.1-1.9,0.8C562.8,139,563.2,139.8,563.9,140.1z"/>
	<path fill="#64656A" d="M565.7,135.8c0.2,0.1,0.4,0.1,0.6,0.1c0.5,0,1.1-0.3,1.3-0.8c0.3-0.7,0-1.6-0.7-1.9c-0.7-0.3-1.6,0-1.9,0.7
		S565,135.5,565.7,135.8z"/>
	<path fill="#64656A" d="M575.5,120c0.3,0.2,0.6,0.4,1,0.4c0.4,0,0.8-0.2,1.1-0.5c0.5-0.6,0.5-1.5-0.2-2.1c-0.6-0.5-1.5-0.5-2.1,0.2
		h0C574.8,118.6,574.9,119.5,575.5,120z"/>
	<path fill="#64656A" d="M697.4,157.8c-0.8,0.1-1.4,0.8-1.4,1.6c0.1,0.8,0.7,1.4,1.5,1.4c0,0,0.1,0,0.1,0c0.8-0.1,1.4-0.8,1.4-1.6
		C698.9,158.3,698.2,157.7,697.4,157.8z"/>
	<path fill="#64656A" d="M572.6,123.7c0.3,0.2,0.6,0.3,0.9,0.3c0.4,0,0.9-0.2,1.2-0.6c0.5-0.6,0.4-1.6-0.3-2c-0.6-0.5-1.6-0.4-2,0.3
		C571.9,122.3,572,123.2,572.6,123.7z"/>
	<path fill="#64656A" d="M559.8,162.9C559.8,162.9,559.8,162.9,559.8,162.9c0.8,0,1.5-0.6,1.5-1.4c0-0.8-0.6-1.5-1.4-1.5
		c-0.8,0-1.5,0.6-1.5,1.4C558.3,162.2,558.9,162.9,559.8,162.9z"/>
	<path fill="#64656A" d="M560,158.3c0.1,0,0.1,0,0.2,0c0.7,0,1.4-0.6,1.5-1.3c0.1-0.8-0.5-1.5-1.3-1.6c-0.8-0.1-1.5,0.5-1.6,1.3
		C558.6,157.5,559.2,158.2,560,158.3z"/>
	<path fill="#64656A" d="M560.5,153.7c0.1,0,0.2,0,0.2,0c0.7,0,1.3-0.5,1.4-1.2c0.1-0.8-0.4-1.6-1.2-1.7c-0.8-0.1-1.5,0.4-1.7,1.2
		C559.2,152.8,559.7,153.5,560.5,153.7z"/>
	<path fill="#64656A" d="M562.5,144.6c0.1,0,0.3,0.1,0.4,0.1c0.6,0,1.2-0.4,1.4-1c0.2-0.8-0.2-1.6-1-1.8c-0.8-0.2-1.6,0.2-1.8,1
		C561.3,143.5,561.7,144.3,562.5,144.6z"/>
	<path fill="#64656A" d="M561.3,149.1c0.1,0,0.2,0,0.3,0c0.7,0,1.3-0.5,1.4-1.1c0,0,0,0,0,0c0.2-0.8-0.3-1.6-1.1-1.8
		c-0.8-0.2-1.6,0.3-1.8,1.1C560.1,148.1,560.6,148.9,561.3,149.1z"/>
	<path fill="#64656A" d="M570,127.6c0.2,0.2,0.5,0.2,0.8,0.2c0.5,0,0.9-0.2,1.2-0.7c0.4-0.7,0.2-1.6-0.4-2c-0.7-0.4-1.6-0.2-2,0.4
		C569.2,126.3,569.4,127.2,570,127.6z"/>
	<path fill="#64656A" d="M602.6,101.5c0.2,0,0.4,0,0.6-0.1c0.7-0.3,1.1-1.2,0.8-1.9c-0.3-0.7-1.2-1.1-1.9-0.8
		c-0.7,0.3-1.1,1.2-0.8,1.9C601.5,101.2,602.1,101.5,602.6,101.5z"/>
	<path fill="#64656A" d="M607,99.9c0.2,0,0.3,0,0.5-0.1c0.8-0.3,1.2-1.1,0.9-1.8c-0.3-0.8-1.1-1.2-1.8-0.9c-0.8,0.3-1.2,1.1-0.9,1.8
		C605.8,99.5,606.4,99.9,607,99.9z"/>
	<path fill="#64656A" d="M611.5,98.6c0.1,0,0.2,0,0.4,0c0.8-0.2,1.3-1,1.1-1.8c-0.2-0.8-1-1.3-1.8-1.1c-0.8,0.2-1.3,1-1.1,1.8
		C610.2,98.1,610.8,98.6,611.5,98.6z"/>
	<path fill="#64656A" d="M598.4,103.4c0.2,0,0.4,0,0.6-0.1c0.7-0.4,1-1.2,0.7-2c-0.4-0.7-1.2-1-2-0.7h0c-0.7,0.4-1,1.2-0.7,2
		C597.3,103.1,597.8,103.4,598.4,103.4z"/>
	<path fill="#64656A" d="M579.6,117c0.4,0,0.8-0.1,1-0.4c0.6-0.6,0.6-1.5,0-2.1c-0.6-0.6-1.5-0.6-2.1,0h0c-0.6,0.6-0.6,1.5,0,2.1
		C578.8,116.8,579.2,117,579.6,117z"/>
	<path fill="#64656A" d="M616,97.6c0.1,0,0.2,0,0.3,0c0.8-0.1,1.3-0.9,1.2-1.7c-0.1-0.8-0.9-1.3-1.7-1.2c-0.8,0.1-1.3,0.9-1.2,1.7
		C614.7,97.1,615.3,97.6,616,97.6z"/>
	<path fill="#64656A" d="M594.3,105.6c0.2,0,0.5-0.1,0.7-0.2c0.7-0.4,0.9-1.3,0.5-2c-0.4-0.7-1.3-0.9-2-0.5v0
		c-0.7,0.4-0.9,1.3-0.5,2C593.3,105.3,593.8,105.6,594.3,105.6z"/>
	<path fill="#64656A" d="M586.5,110.8c0.3,0,0.6-0.1,0.9-0.3c0.6-0.5,0.8-1.4,0.3-2.1c-0.5-0.6-1.4-0.8-2.1-0.3
		c-0.6,0.5-0.8,1.4-0.3,2.1C585.7,110.6,586.1,110.8,586.5,110.8z"/>
	<path fill="#64656A" d="M583,113.8c0.3,0,0.7-0.1,1-0.4c0.6-0.5,0.7-1.5,0.1-2.1c-0.5-0.6-1.5-0.7-2.1-0.1
		c-0.6,0.5-0.7,1.5-0.1,2.1C582.1,113.6,582.5,113.8,583,113.8z"/>
	<path fill="#64656A" d="M590.3,108.1c0.3,0,0.6-0.1,0.8-0.2c0.7-0.5,0.8-1.4,0.4-2c-0.5-0.7-1.4-0.8-2-0.4c-0.7,0.5-0.8,1.4-0.4,2
		C589.4,107.8,589.8,108.1,590.3,108.1z"/>
</g>
</svg>
